<svg version="1" xmlns="http://www.w3.org/2000/svg" width="1232" height="1232" viewBox="0 0 924.000000 924.000000"><path d="M719.5 115c-42.3 3.7-89.2 10.7-111.2 16.5-13.7 3.6-27.2 8.9-42.8 16.8-24.5 12.4-43.4 26.6-67.7 50.8-7.5 7.5-13.9 13.5-14.1 13.2-.3-.2 3-6 7.4-12.9 8-12.6 8.8-14.4 6.7-14.4-1.3 0-32.3 31.1-38.7 38.8-2.4 2.9-4.5 5.1-4.7 4.9-.2-.2.7-4.2 2.1-8.8 1.4-4.6 2.4-9 2.3-9.7-.4-1.8-11.2 9-16 16-2.2 3.3-7.4 11.9-11.5 19.2-7.3 12.8-9.8 16.4-10.7 15.5-.2-.2.2-4.7 1-9.8 2.1-14-.1-14.7-6.2-2.1-7.6 15.8-8.6 25.9-5.8 57 1 10.7 1.8 24.9 1.8 31.5.1 11.8.7 15.1 2.7 13.9.6-.3 5.2-7 10.4-14.8 11.4-17.4 35.1-49.5 39.5-53.6.3-.3 3.2-3.7 6.4-7.5 3.3-3.9 8.4-9.2 11.5-11.9 3.1-2.7 10.7-9.7 16.9-15.5 14.3-13.4 26.9-22.9 45.2-34 61.1-37 93.6-50.4 153.7-63.1 7.3-1.5 13.5-2.5 13.8-2.2.6.6-4.9 2.4-24.5 7.7-16.6 4.4-38.2 11.5-51.5 16.7-37.9 14.9-89.7 46.8-129 79.4-10.9 9-16.3 14.4-30 29.9-3.8 4.3-9.2 10.3-11.9 13.2-12.1 13.2-31.8 41.6-39.2 56.3-4.5 9-18.1 32.9-20 35.1-1.3 1.4-13.6 1.7-119.2 2.4-64.7.4-122.6 1-128.7 1.4l-11 .6-.3 27.6c-.2 22.7 0 27.8 1.2 28.8.7.6 5.1 1.8 9.6 2.6 4.6.8 10.3 2.4 12.7 3.6 9.5 4.6 18.8 17 19.4 25.9.6 8.5.1 10.5-3.3 12.5-1.8 1-7.6 4.9-12.8 8.6-5.2 3.7-27.7 18.6-50 33.1-63.6 41.5-75.6 49.6-76.9 52.5-3.1 6.7-3.5 19.4-3.4 106.8 0 89.6.7 111.3 3.7 114.3.9 1 6 1.7 16.2 2.2 19.3 1.1 145.7 1.6 347.5 1.2 152.3-.2 161.8-.3 163.8-2l2.1-1.7.3-101.5c.1-55.8-.2-105.5-.6-110.3-.7-7-1.3-9.2-3-10.9-2.1-2-51.4-34.8-113.7-75.8l-28.2-18.5.4-7.5c.6-9.2 3.5-15.5 10.5-22.1 6.1-6 10.9-8.3 20.8-10.4 4.4-.9 9-2.3 10.2-3 3.5-2.3 4.3-7.7 4.3-28.5 0-29.6.8-28.9-32.7-29.7-11.7-.3-21.3-.8-21.3-1 0-.2 2-4.3 4.5-9.2 6.7-13.5 14.2-25.8 16.2-26.5.9-.4 10-.4 20.2 0 19.4.7 30.3 0 54.6-3.7 15.8-2.3 27.3-4.8 28.1-6 .3-.5 0-.9-.6-.9-.7 0-2.6-.6-4.3-1.4-1.8-.8-5.4-2-8.2-2.7-5.7-1.4-11.9-3.8-11.4-4.4.2-.2 5.7.1 12.3.7 8.5.7 15.2.7 23.7-.1 12.8-1.2 16.9-2.5 16.9-5.2 0-2.2-2-2.9-10-3.5-8-.6-16-2.3-16-3.4 0-.4-1-1.1-2.2-1.5-2.3-.8-1.7-.8 27.7-3.5 20.3-1.9 39.7-5.8 42.4-8.5 1.3-1.2 1.1-1.6-1.2-2.4-3.5-1.3-13.9-3.8-24.2-5.7-7.8-1.5-20.9-5.3-20.3-5.9.2-.2 13.6-.6 29.8-.8 30.8-.6 36.9-1.3 48.9-5.7 23.4-8.8 66.5-40.3 95.6-70 38.8-39.6 71.2-59.4 116.9-71.6 15.5-4.1 18.1-5.3 18.1-7.9 0-3.3-16.6-11-30-13.9-13.2-3-34.3-6.1-55.5-8.1-18.7-1.9-61.6-2.7-75.5-1.5zM454 420v8l-144.2-.2-144.3-.3-.3-6.4c-.2-3.5-.1-7 .2-7.7.5-1.2 24.3-1.4 144.6-1.4h144v8zm-82.2 31.5c.1.1-1.7 4.2-4.1 9.1-2.4 4.9-5.9 12.4-7.8 16.6l-3.4 7.8H212v-2.6c0-5.3-3.4-17.2-6.9-23.9-2-3.9-3.7-7.3-3.9-7.7-.3-.6 169.8.1 170.6.7zm42.5 8.2c-3.3 6.7-4.7 10.8-5.5 17l-1.2 8.3h-15.3c-8.4 0-15.3-.1-15.3-.3 0-.3 10.9-24.5 13.4-30l1.8-3.7h26.6l-4.5 8.7zm-68.6 49.5c-6.8 16.5-12 29.9-14 36.3-2.2 7.1-8.7 32.4-8.7 34.1 0 1 20.3-17.6 24.3-22.4 2.2-2.7 4.3-6.6 5.3-10.1 2.3-8.3 6.2-19.5 10-28.6 1.9-4.4 3.4-8.5 3.4-9.2 0-1 5.3-1.3 25-1.3h24.9l14.3 9.2c7.8 5.1 20.4 13.3 28 18.3 7.6 4.9 19.7 12.9 27 17.6 7.3 4.8 20.5 13.4 29.3 19.1 8.8 5.7 21.5 14 28.2 18.4l12.3 7.9V790H407.8c-81 0-191.5-.3-245.6-.7l-98.2-.6.2-95.1.3-95.1 14-9.2c7.7-5 19.2-12.5 25.5-16.6 6.3-4.1 18.7-12.2 27.5-17.9 8.8-5.8 23.2-15.1 32-20.8 8.8-5.6 21.4-13.8 28-18.1l12-7.9h71.4c56.7 0 71.2.3 70.8 1.2z"/><path d="M190 604.6c-8.5.8-30.4 4.5-38.4 6.5-21.2 5.3-44.7 14-58.6 21.6l-7.5 4.1-.3 66.9-.2 66.8 225 .4 225 .4v-63.2c0-35.7-.4-63.1-.9-63.1s-3.8 1.1-7.5 2.5c-24 9-57.6 17-84.3 19.9-7.8.9-22.4 1.6-32.5 1.6-32.9 0-46.4-4.6-95.3-32.5-29.9-17.1-48.3-25.1-67.9-29.7-7.6-1.8-12.7-2.1-30.6-2.3-11.8-.2-23.5-.1-26 .1z"/></svg>